<?xml version="1.0" encoding="utf-8"?>
<!-- Generator: Adobe Illustrator 19.0.0, SVG Export Plug-In . SVG Version: 6.00 Build 0)  -->
<svg version="1.1" xmlns="http://www.w3.org/2000/svg" xmlns:xlink="http://www.w3.org/1999/xlink" x="0px" y="0px"
	 viewBox="0 0 720 720" style="enable-background:new 0 0 720 720;" xml:space="preserve">
<style type="text/css">
	.st0{fill:#46BCEC;}
	.st1{opacity:0.3;}
	.st2{fill:#FFFFFF;}
</style>
<g id="Layer_1">
	<circle id="XMLID_24_" class="st0" cx="360" cy="360" r="360"/>
	<polygon id="XMLID_23_" class="st1" points="720,593.2 442.8,154.3 278,334.3 198.8,507.8 206,519.2 198.8,519.3 198.8,556.8 
		205.3,566.3 198.8,566.3 198.8,577.8 205.3,586.8 198.8,587.3 199.8,624.8 260,720 720,720 	"/>
	<rect id="XMLID_180_" x="198.8" y="519.3" class="st2" width="322.5" height="37.5"/>
	<rect id="XMLID_179_" x="198.8" y="566.3" class="st2" width="322.5" height="11.5"/>
	<path id="XMLID_27_" class="st2" d="M433.1,470.4v37.4h88.1c0-249.8-83.5-415-161.3-415s-161.3,165.2-161.3,415h88.1v-37.4v-114
		v-2.9h0.1c1.5-19.3,17.6-34.5,37.3-34.5h71.5c19.7,0,35.8,15.2,37.3,34.5h0.1v2.9V470.4z"/>
	<path id="XMLID_5_" class="st2" d="M419,363.8c-1.2-16.5-14.2-29.5-30.1-29.5h-57.7c-15.9,0-28.9,13-30.1,29.5h-0.1v2.5v100.6v40.9
		h30.2h57.7h30.2v-40.9v-41.4h-51.8v13.1c0,4-3.3,7.3-7.3,7.3s-7.3-3.3-7.3-7.3v-20.4c0-4,3.3-7.3,7.3-7.3v0h59.1v-44.6L419,363.8
		L419,363.8z"/>
	<path id="XMLID_1_" class="st2" d="M204.8,627.3L204.8,627.3c-3.3,0-6-2.7-6-6v-28v-6c0,0,4.5,0,6,0h0c1.5,0,6,0,6,0v6v28
		C210.8,624.6,208.1,627.3,204.8,627.3z"/>
	<path id="XMLID_6_" class="st2" d="M256.5,627.3L256.5,627.3c-3.3,0-6-2.7-6-6v-28v-6c0,0,4.5,0,6,0l0,0c1.5,0,6,0,6,0v6v28
		C262.5,624.6,259.8,627.3,256.5,627.3z"/>
	<path id="XMLID_7_" class="st2" d="M308.3,627.3L308.3,627.3c-3.3,0-6-2.7-6-6v-28v-6c0,0,4.5,0,6,0l0,0c1.5,0,6,0,6,0v6v28
		C314.3,624.6,311.6,627.3,308.3,627.3z"/>
	<path id="XMLID_8_" class="st2" d="M360,627.3L360,627.3c-3.3,0-6-2.7-6-6v-28v-6c0,0,4.5,0,6,0l0,0c1.5,0,6,0,6,0v6v28
		C366,624.6,363.3,627.3,360,627.3z"/>
	<path id="XMLID_28_" class="st2" d="M411.8,627.3L411.8,627.3c-3.3,0-6-2.7-6-6v-28v-6c0,0,4.5,0,6,0l0,0c1.5,0,6,0,6,0v6v28
		C417.8,624.6,415.1,627.3,411.8,627.3z"/>
	<path id="XMLID_29_" class="st2" d="M463.5,627.3L463.5,627.3c-3.3,0-6-2.7-6-6v-28v-6c0,0,4.5,0,6,0l0,0c1.5,0,6,0,6,0v6v28
		C469.5,624.6,466.8,627.3,463.5,627.3z"/>
	<path id="XMLID_30_" class="st2" d="M515.3,627.3L515.3,627.3c-3.3,0-6-2.7-6-6v-28v-6c0,0,4.5,0,6,0l0,0c1.5,0,6,0,6,0v6v28
		C521.3,624.6,518.6,627.3,515.3,627.3z"/>
	<path id="XMLID_18_" class="st2" d="M720,360c0,198.8-161.2,360-360,360S0,558.8,0,360v360h720V360z"/>
</g>
<g id="Layer_2">
</g>
</svg>
